<?xml version="1.0" encoding="UTF-8"?>
<svg xmlns="http://www.w3.org/2000/svg" xmlns:xlink="http://www.w3.org/1999/xlink" width="50pt" height="50pt" viewBox="0 0 50 50" version="1.1">
<g id="surface5686">
<path style=" stroke:none;fill-rule:nonzero;fill:rgb(100%,23.921569%,0%);fill-opacity:1;" d="M 45 35.3125 C 44.582031 37.5 42.8125 39.167969 40.625 39.480469 C 37.1875 40 31.457031 40.625 25 40.625 C 18.644531 40.625 12.917969 40 9.375 39.480469 C 7.1875 39.167969 5.417969 37.5 5 35.3125 C 4.582031 32.917969 4.167969 29.375 4.167969 25 C 4.167969 20.625 4.582031 17.082031 5 14.6875 C 5.417969 12.5 7.1875 10.832031 9.375 10.519531 C 12.8125 10 18.542969 9.375 25 9.375 C 31.457031 9.375 37.082031 10 40.625 10.519531 C 42.8125 10.832031 44.582031 12.5 45 14.6875 C 45.417969 17.082031 45.9375 20.625 45.9375 25 C 45.832031 29.375 45.417969 32.917969 45 35.3125 Z M 45 35.3125 "/>
<path style=" stroke:none;fill-rule:nonzero;fill:rgb(100%,100%,100%);fill-opacity:1;" d="M 20.832031 32.292969 L 20.832031 17.707031 L 33.332031 25 Z M 20.832031 32.292969 "/>
</g>
</svg>
